<svg xmlns="http://www.w3.org/2000/svg" width="50" height="50" viewBox="0 0 50 50"><path fill="#A4C400" d="M43.906 16.25c-.73 1.043-1.64 1.953-2.734 2.734C35.6 22.84 32.11 25.26 30.704 26.25c-.106.105-.42.313-.938.625-.47.365-.86.652-1.173.86-.312.208-.702.442-1.172.702-.467.312-.886.52-1.25.625-.417.157-.81.234-1.17.234-.366 0-.758-.077-1.172-.234-.366-.104-.78-.312-1.25-.625-.47-.26-.86-.494-1.173-.702-.312-.208-.703-.495-1.173-.86-.52-.312-.834-.52-.938-.624-1.354-.988-3.308-2.37-5.86-4.14-2.55-1.72-4.087-2.76-4.607-3.126C7.89 18.36 7.03 17.5 6.25 16.407 5.417 15.312 5 14.297 5 13.36c0-1.198.313-2.16.938-2.892.624-.78 1.51-1.172 2.655-1.172h32.814c.987 0 1.82.34 2.5 1.016.728.73 1.093 1.562 1.093 2.5 0 1.2-.364 2.344-1.094 3.438zM45 37.11c0 .99-.34 1.85-1.016 2.577-.73.678-1.59 1.016-2.577 1.016H8.593c-.99 0-1.85-.338-2.577-1.016C5.34 38.96 5 38.1 5 37.11V19.375c.677.73 1.433 1.38 2.267 1.953 5.36 3.698 9.06 6.275 11.092 7.732.833.626 1.51 1.12 2.03 1.484.52.312 1.224.652 2.11 1.017.884.364 1.718.547 2.5.547s1.613-.183 2.5-.547c.885-.364 1.587-.704 2.11-1.017.52-.363 1.197-.858 2.03-1.484 2.55-1.822 6.25-4.4 11.093-7.733.887-.574 1.643-1.225 2.267-1.954V37.11z"/></svg>