<?xml version="1.0" encoding="utf-8"?>
<!-- Generator: Adobe Illustrator 16.0.4, SVG Export Plug-In . SVG Version: 6.00 Build 0)  -->
<!DOCTYPE svg PUBLIC "-//W3C//DTD SVG 1.1//EN" "http://www.w3.org/Graphics/SVG/1.1/DTD/svg11.dtd">
<svg version="1.1" id="icons" xmlns="http://www.w3.org/2000/svg" xmlns:xlink="http://www.w3.org/1999/xlink" x="0px" y="0px"
	 width="50px" height="50px" viewBox="0 0 50 50" enable-background="new 0 0 50 50" xml:space="preserve">
<g>
	<path fill="#222222" d="M43.906,16.25c-0.73,1.043-1.64,1.953-2.734,2.734c-5.573,3.855-9.063,6.277-10.468,7.267
		c-0.106,0.104-0.42,0.312-0.938,0.624c-0.47,0.365-0.859,0.652-1.173,0.86c-0.312,0.208-0.702,0.442-1.172,0.702
		c-0.468,0.312-0.887,0.521-1.251,0.625c-0.417,0.157-0.809,0.234-1.17,0.234c-0.366,0-0.758-0.077-1.172-0.234
		c-0.366-0.104-0.781-0.312-1.251-0.625c-0.47-0.26-0.859-0.494-1.172-0.702c-0.312-0.208-0.703-0.495-1.173-0.86
		c-0.521-0.312-0.834-0.52-0.938-0.624c-1.354-0.989-3.308-2.37-5.859-4.142c-2.552-1.718-4.088-2.76-4.608-3.125
		c-0.938-0.624-1.797-1.483-2.577-2.577C5.417,15.312,5,14.297,5,13.359c0-1.197,0.313-2.16,0.938-2.891
		c0.624-0.78,1.511-1.172,2.655-1.172h32.814c0.987,0,1.821,0.34,2.499,1.016c0.729,0.73,1.094,1.562,1.094,2.5
		C45,14.012,44.636,15.156,43.906,16.25z M45,37.109c0,0.99-0.339,1.85-1.016,2.578c-0.73,0.678-1.59,1.016-2.577,1.016H8.593
		c-0.99,0-1.85-0.338-2.577-1.016C5.339,38.959,5,38.1,5,37.109V19.376c0.677,0.729,1.433,1.38,2.267,1.953
		c5.361,3.699,9.061,6.276,11.092,7.733c0.834,0.626,1.511,1.121,2.031,1.484c0.521,0.312,1.224,0.652,2.11,1.017
		c0.884,0.364,1.718,0.547,2.501,0.547c0.781,0,1.612-0.183,2.499-0.547c0.885-0.364,1.587-0.704,2.11-1.017
		c0.521-0.363,1.197-0.858,2.031-1.484c2.549-1.822,6.248-4.4,11.092-7.733c0.887-0.573,1.643-1.224,2.267-1.953V37.109z"/>
</g>
</svg>
