<?xml version="1.0" encoding="utf-8"?>
<!-- Generator: Adobe Illustrator 16.0.3, SVG Export Plug-In . SVG Version: 6.00 Build 0)  -->
<!DOCTYPE svg PUBLIC "-//W3C//DTD SVG 1.1//EN" "http://www.w3.org/Graphics/SVG/1.1/DTD/svg11.dtd">
<svg version="1.1" id="Layer_1" xmlns="http://www.w3.org/2000/svg" xmlns:xlink="http://www.w3.org/1999/xlink" x="0px" y="0px"
	 width="50px" height="50px" viewBox="87.5 87.5 50 50" enable-background="new 87.5 87.5 50 50" xml:space="preserve">
<g>
	<path id="path48" d="M88.486,111.734c0.131-7.87,7.368-14.765,15.239-14.502c3.771-0.175,7.317,1.466,10.206,3.771
		c-1.233,1.401-2.511,2.75-3.874,4.013c-3.473-2.399-8.411-3.086-11.884-0.313c-4.968,3.436-5.194,11.547-0.416,15.246
		c4.647,4.217,13.431,2.123,14.715-4.333c-2.911-0.044-5.829,0-8.74-0.094c-0.007-1.737-0.015-3.473-0.007-5.209
		c4.866-0.015,9.732-0.022,14.605,0.015c0.291,4.086-0.248,8.433-2.758,11.811c-3.801,5.348-11.432,6.908-17.384,4.618
		C92.214,124.479,87.982,118.169,88.486,111.734"/>
	<path id="path50" d="M127.821,105.929c1.445,0,2.889,0,4.341,0c0.008,1.451,0.015,2.91,0.029,4.361
		c1.452,0.015,2.911,0.015,4.363,0.029c0,1.444,0,2.896,0,4.342c-1.452,0.014-2.903,0.021-4.363,0.036
		c-0.015,1.458-0.022,2.91-0.029,4.362c-1.452,0-2.896,0-4.348,0c-0.015-1.452-0.015-2.903-0.028-4.355
		c-1.452-0.015-2.911-0.029-4.363-0.042c0-1.445,0-2.89,0-4.342c1.452-0.015,2.903-0.021,4.363-0.029
		C127.792,108.832,127.807,107.38,127.821,105.929"/>
</g>
</svg>
