<svg xmlns="http://www.w3.org/2000/svg" width="50" height="50" viewBox="87.5 87.5 50 50"><path d="M88.486 111.734c.13-7.87 7.368-14.765 15.24-14.502 3.77-.175 7.316 1.466 10.205 3.77-1.232 1.402-2.51 2.75-3.873 4.014-3.473-2.4-8.41-3.086-11.884-.313-4.968 3.436-5.194 11.547-.416 15.246 4.647 4.216 13.43 2.122 14.715-4.334-2.91-.044-5.83 0-8.74-.094-.007-1.737-.015-3.473-.007-5.21 4.866-.014 9.732-.02 14.605.016.29 4.086-.248 8.433-2.758 11.81-3.8 5.35-11.432 6.91-17.384 4.62-5.974-2.28-10.206-8.59-9.702-15.024M127.82 105.93h4.342c.008 1.45.015 2.91.03 4.36 1.45.015 2.91.015 4.362.03v4.34c-1.452.015-2.903.022-4.363.037-.014 1.458-.02 2.91-.028 4.362h-4.348c-.015-1.453-.015-2.904-.028-4.356-1.452-.015-2.91-.03-4.363-.042v-4.342c1.452-.015 2.903-.02 4.363-.03.006-1.458.02-2.91.035-4.36"/></svg>