<svg xmlns="http://www.w3.org/2000/svg" width="50" height="50" viewBox="0 0 50 50"><path fill="#A4C400" d="M22.232 31.456C21.182 36.963 19.898 42.242 16.1 45c-1.174-8.323 1.722-14.574 3.066-21.21-2.292-3.86.275-11.626 5.11-9.712 5.95 2.354-5.15 14.346 2.3 15.845 7.782 1.563 10.958-13.5 6.133-18.4-6.97-7.073-20.294-.16-18.655 9.967.398 2.476 2.956 3.227 1.022 6.645-4.462-.99-5.794-4.508-5.622-9.2.275-7.68 6.9-13.057 13.543-13.8 8.403-.94 16.29 3.084 17.378 10.988 1.227 8.92-3.792 18.583-12.777 17.888-2.436-.19-3.458-1.395-5.368-2.554z"/></svg>