<?xml version="1.0" encoding="utf-8"?>
<!-- Generator: Adobe Illustrator 16.0.4, SVG Export Plug-In . SVG Version: 6.00 Build 0)  -->
<!DOCTYPE svg PUBLIC "-//W3C//DTD SVG 1.1//EN" "http://www.w3.org/Graphics/SVG/1.1/DTD/svg11.dtd">
<svg version="1.1" id="icons" xmlns="http://www.w3.org/2000/svg" xmlns:xlink="http://www.w3.org/1999/xlink" x="0px" y="0px"
	 width="50px" height="50px" viewBox="0 0 50 50" enable-background="new 0 0 50 50" xml:space="preserve">
<path fill="#222222" d="M22.232,31.456C21.182,36.963,19.898,42.242,16.099,45c-1.173-8.323,1.723-14.574,3.067-21.211
	c-2.292-3.858,0.275-11.625,5.111-9.711c5.948,2.354-5.152,14.346,2.3,15.845c7.781,1.563,10.957-13.501,6.132-18.4
	c-6.97-7.073-20.293-0.161-18.654,9.967c0.398,2.476,2.956,3.227,1.022,6.645c-4.462-0.989-5.794-4.508-5.622-9.2
	C9.73,11.255,16.354,5.878,22.998,5.135c8.403-0.941,16.289,3.084,17.378,10.988c1.227,8.921-3.792,18.583-12.777,17.888
	C25.164,33.821,24.142,32.615,22.232,31.456z"/>
</svg>
