<svg viewBox="0 0 92 122" style="background-color:#ffffff00" xmlns="http://www.w3.org/2000/svg" width="92" height="122"><path d="M2 10.133v80.904c.82 8.581-.434 25.713 24.317 29.216l59.686.747c5.043-4.744 5.128-9.488 5.158-14.232-.481-6.453-1.218-12.694-5.895-15.733l-48.633-.747c-7.897-1.592-10.837-5.425-11.053-10.487V59.574l60.519.616c3.567-4.74 6.49-8.375 5.8-14.85-.374-9.852-2.997-12.839-5.896-14.982l-58.95-.747-.736-19.477c-2.02-3.563-2.804-7.878-8.843-8.99C9.878.176 5.34 4.182 2 10.135v-.002z"/></svg>