<svg viewBox="0 0 92 122" style="background-color:#ffffff00" xmlns="http://www.w3.org/2000/svg" width="92" height="122"><path d="M2 10.133v80.904c.82 8.58-.434 25.713 24.317 29.216l59.686.747c5.043-4.744 5.128-9.488 5.158-14.232-.48-6.453-1.217-12.694-5.894-15.733l-48.633-.747C28.736 88.696 25.796 84.863 25.58 79.8V59.575l60.52.616c3.566-4.74 6.49-8.375 5.798-14.85-.373-9.852-2.996-12.84-5.895-14.982l-58.95-.747-.736-19.476c-2.02-3.563-2.804-7.878-8.843-8.99C9.878.175 5.34 4.182 2 10.135v-.002z"/></svg>