<?xml version="1.0" encoding="utf-8"?>
<!-- Generator: Adobe Illustrator 16.0.4, SVG Export Plug-In . SVG Version: 6.00 Build 0)  -->
<!DOCTYPE svg PUBLIC "-//W3C//DTD SVG 1.1//EN" "http://www.w3.org/Graphics/SVG/1.1/DTD/svg11.dtd">
<svg version="1.1" id="Layer_1" xmlns="http://www.w3.org/2000/svg" xmlns:xlink="http://www.w3.org/1999/xlink" x="0px" y="0px"
	 width="512px" height="512px" viewBox="0 0 512 512" enable-background="new 0 0 512 512" xml:space="preserve">
<path fill="#0378CC" d="M510.071,96.388c-18.827,8.363-38.853,14.041-59.781,16.434c21.542-12.858,37.946-33.773,45.712-58.293
	c-20.025,11.968-42.443,20.93-66.028,25.717c-19.149-20.623-46.354-33.481-76.245-33.481c-67.254,0-116.863,63.664-101.611,129.721
	c-86.68-4.48-163.509-46.325-214.913-110.295C10,113.727,23.15,175.596,69.475,207.282c-17.032-0.599-33.174-5.386-47.215-13.457
	c-0.905,49.025,33.466,94.751,83.688,104.91c-14.639,4.203-30.781,5.079-46.923,1.811c13.15,42.15,51.71,72.625,97.145,73.529
	c-43.639,34.648-98.94,50.207-154.241,43.639c46.033,29.892,101.027,47.522,159.918,47.522
	c193.399,0,302.804-165.597,296.208-314.145C478.371,136.145,496.002,117.609,510.071,96.388z"/>
</svg>
