<?xml version="1.0" encoding="utf-8"?>
<!-- Generator: Adobe Illustrator 16.0.4, SVG Export Plug-In . SVG Version: 6.00 Build 0)  -->
<!DOCTYPE svg PUBLIC "-//W3C//DTD SVG 1.1//EN" "http://www.w3.org/Graphics/SVG/1.1/DTD/svg11.dtd">
<svg version="1.1" id="Layer_1" xmlns="http://www.w3.org/2000/svg" xmlns:xlink="http://www.w3.org/1999/xlink" x="0px" y="0px"
	 width="512px" height="512px" viewBox="0 0 512 512" enable-background="new 0 0 512 512" xml:space="preserve">
<path id="user-6-icon" fill="#58585A" d="M406.417,149.651c0,82.683-66.75,149.651-149.11,149.651
	c-82.349,0-149.14-66.997-149.14-149.651c0-82.653,66.791-149.65,149.14-149.65C339.667,0,406.417,66.997,406.417,149.651
	L406.417,149.651z M380.389,306.395c-34.776,27.561-77.833,42.828-123.082,42.828c-45.765,0-89.279-15.658-124.182-43.719
	C41.098,339.406,0,457.907,0,512h512C512,458.353,470.583,340.712,380.389,306.395L380.389,306.395z"/>
</svg>
