<?xml version="1.0" encoding="utf-8"?>
<!-- Generator: Adobe Illustrator 16.0.4, SVG Export Plug-In . SVG Version: 6.00 Build 0)  -->
<!DOCTYPE svg PUBLIC "-//W3C//DTD SVG 1.1//EN" "http://www.w3.org/Graphics/SVG/1.1/DTD/svg11.dtd">
<svg version="1.1" id="Layer_1" xmlns="http://www.w3.org/2000/svg" xmlns:xlink="http://www.w3.org/1999/xlink" x="0px" y="0px"
	 width="512px" height="512px" viewBox="0 0 512 512" enable-background="new 0 0 512 512" xml:space="preserve">
<path id="help-5-icon" fill="#58585A" d="M256,14.369c-134.25,0-254.153,92.838-254.153,219.815
	c0,45.035,15.636,89.239,43.335,123.564c1.166,40.208-21.643,97.864-42.219,139.884c55.125-10.325,133.456-33.135,168.997-55.72
	c195.604,49.365,338.193-74.782,338.193-207.728C510.153,106.512,389.406,14.369,256,14.369L256,14.369z M263.023,366.535
	c-15.115,0-27.401-12.609-27.401-28.171c0-15.536,12.286-28.146,27.401-28.146c15.141,0,27.427,12.609,27.427,28.146
	C290.45,353.926,278.164,366.535,263.023,366.535L263.023,366.535z M284.566,283.314v5.063h-45.146v-5.063
	c0-14.32,2.035-32.699,18.218-48.67c16.182-15.984,36.435-29.188,36.435-49.156c0-22.077-14.916-33.754-33.705-33.754
	c-31.347,0-33.382,33.382-34.151,40.729h-43.931c1.166-34.797,15.487-83.481,78.331-83.481c54.479,0,78.975,37.478,78.975,72.623
	C339.592,237.535,284.566,247.252,284.566,283.314L284.566,283.314z"/>
</svg>
