<?xml version="1.0" encoding="utf-8"?>
<!-- Generator: Adobe Illustrator 16.0.4, SVG Export Plug-In . SVG Version: 6.00 Build 0)  -->
<!DOCTYPE svg PUBLIC "-//W3C//DTD SVG 1.1//EN" "http://www.w3.org/Graphics/SVG/1.1/DTD/svg11.dtd">
<svg version="1.1" id="Layer_1" xmlns="http://www.w3.org/2000/svg" xmlns:xlink="http://www.w3.org/1999/xlink" x="0px" y="0px"
	 width="512px" height="512px" viewBox="0 0 512 512" enable-background="new 0 0 512 512" xml:space="preserve">
<path id="refresh-2-icon" fill="#58585A" d="M166.645,60.923C101.35,102.172,63.945,171.759,60.3,244.406H1.249l94.715,97.003
	l95.211-97.003H132.66c3.458-48.116,28.71-93.595,72.012-120.986c71.875-45.405,166.291-22.84,210.85,50.379
	c44.582,73.243,22.439,169.376-49.436,214.779c-65.779,41.573-150.405,26.197-198.459-32.84l-50.74,52.693
	c71.427,82.149,192.625,102.427,287.239,42.666c105.735-66.8,138.377-208.311,72.746-316.062
	C411.317,27.312,272.417-5.901,166.645,60.923L166.645,60.923z"/>
</svg>
