<?xml version="1.0" encoding="utf-8"?>
<!-- Generator: Adobe Illustrator 16.0.4, SVG Export Plug-In . SVG Version: 6.00 Build 0)  -->
<!DOCTYPE svg PUBLIC "-//W3C//DTD SVG 1.1//EN" "http://www.w3.org/Graphics/SVG/1.1/DTD/svg11.dtd">
<svg version="1.1" id="Layer_1" xmlns="http://www.w3.org/2000/svg" xmlns:xlink="http://www.w3.org/1999/xlink" x="0px" y="0px"
	 width="512px" height="512px" viewBox="0 0 512 512" enable-background="new 0 0 512 512" xml:space="preserve">
<path id="magnifier-2-icon" fill="#58585A" d="M512,461.775L378.571,329.4c25.095-34.25,39.957-76.325,39.957-121.812
	C418.528,93.138,324.654,0,209.264,0C93.873,0,0,93.138,0,207.588C0,322.05,93.873,415.175,209.264,415.175
	c43.734,0,84.365-13.375,117.967-36.225L461.386,512L512,461.775L512,461.775z M61.348,207.588
	c0-80.888,66.353-146.713,147.916-146.713c81.538,0,147.865,65.825,147.865,146.713c0,80.912-66.352,146.712-147.865,146.712
	C127.675,354.3,61.348,288.5,61.348,207.588L61.348,207.588z"/>
</svg>
