<?xml version="1.0" encoding="utf-8"?>
<!-- Generator: Adobe Illustrator 16.0.4, SVG Export Plug-In . SVG Version: 6.00 Build 0)  -->
<!DOCTYPE svg PUBLIC "-//W3C//DTD SVG 1.1//EN" "http://www.w3.org/Graphics/SVG/1.1/DTD/svg11.dtd">
<svg version="1.1" id="Layer_1" xmlns="http://www.w3.org/2000/svg" xmlns:xlink="http://www.w3.org/1999/xlink" x="0px" y="0px"
	 width="512px" height="512px" viewBox="0 0 512 512" enable-background="new 0 0 512 512" xml:space="preserve">
<path fill-rule="evenodd" clip-rule="evenodd" fill="#747678" d="M397,247.677l-47.334-47.354
	c-6.832,12.583-16.229,23.469-27.332,32.427l42.25,42.24C373.541,263.896,384.416,254.51,397,247.677z M162.344,200.323
	l-47.354,47.354c13.438,7.26,25.167,17.5,34.344,29.657L192,234.667C179.844,225.49,169.604,213.76,162.344,200.323z"/>
<path fill-rule="evenodd" clip-rule="evenodd" fill="#747678" d="M192,170.667c0-35.417,28.583-64,64-64c35.416,0,64,28.583,64,64
	c0,35.417-28.584,64-64,64C220.583,234.667,192,206.083,192,170.667z"/>
<path fill-rule="evenodd" clip-rule="evenodd" fill="#747678" d="M384,341.334c0-35.418,28.584-64,64-64s64,28.582,64,64
	c0,35.416-28.584,64-64,64S384,376.75,384,341.334z"/>
<path fill-rule="evenodd" clip-rule="evenodd" fill="#747678" d="M0,341.334c0-35.418,28.583-64,64-64s64,28.582,64,64
	c0,35.416-28.583,64-64,64S0,376.75,0,341.334z"/>
</svg>
