<svg xmlns="http://www.w3.org/2000/svg"><symbol id="ic_cake" viewBox="0 0 24 24"><path d="M0 0h24v24H0z" fill="none"/><path d="M12 6a2 2 0 0 0 2-2c0-.38-.1-.73-.29-1.03L12 0l-1.71 2.97c-.19.3-.29.65-.29 1.03 0 1.1.9 2 2 2zm4.6 9.99l-1.07-1.07-1.08 1.07c-1.3 1.3-3.58 1.31-4.89 0l-1.07-1.07-1.09 1.07C6.75 16.64 5.88 17 4.96 17c-.73 0-1.4-.23-1.96-.61V21c0 .55.45 1 1 1h16c.55 0 1-.45 1-1v-4.61c-.56.38-1.23.61-1.96.61-.92 0-1.79-.36-2.44-1.01zM18 9h-5V7h-2v2H6c-1.66 0-3 1.34-3 3v1.54c0 1.08.88 1.96 1.96 1.96.52 0 1.02-.2 1.38-.57l2.14-2.13 2.13 2.13c.74.74 2.03.74 2.77 0l2.14-2.13 2.13 2.13c.37.37.86.57 1.38.57 1.08 0 1.96-.88 1.96-1.96V12C21 10.34 19.66 9 18 9z"/></symbol><symbol id="ic_chevron_left" viewBox="0 0 24 24"><path d="M15.41 7.41L14 6l-6 6 6 6 1.41-1.41L10.83 12z"/><path d="M0 0h24v24H0z" fill="none"/></symbol><symbol id="ic_chevron_right" viewBox="0 0 24 24"><path d="M10 6L8.59 7.41 13.17 12l-4.58 4.59L10 18l6-6z"/><path d="M0 0h24v24H0z" fill="none"/></symbol><symbol id="ic_close" viewBox="0 0 24 24"><path d="M19 6.41L17.59 5 12 10.59 6.41 5 5 6.41 10.59 12 5 17.59 6.41 19 12 13.41 17.59 19 19 17.59 13.41 12z"/><path d="M0 0h24v24H0z" fill="none"/></symbol><symbol id="ic_menu" viewBox="0 0 24 24"><path d="M0 0h24v24H0z" fill="none"/><path d="M3 18h18v-2H3v2zm0-5h18v-2H3v2zm0-7v2h18V6H3z"/></symbol><symbol id="ic_pool" viewBox="0 0 24 24"><path d="M22 21c-1.11 0-1.73-.37-2.18-.64-.37-.22-.6-.36-1.15-.36-.56 0-.78.13-1.15.36-.46.27-1.07.64-2.18.64s-1.73-.37-2.18-.64c-.37-.22-.6-.36-1.15-.36-.56 0-.78.13-1.15.36-.46.27-1.08.64-2.19.64-1.11 0-1.73-.37-2.18-.64-.37-.23-.6-.36-1.15-.36s-.78.13-1.15.36c-.46.27-1.08.64-2.19.64v-2c.56 0 .78-.13 1.15-.36.46-.27 1.08-.64 2.19-.64s1.73.37 2.18.64c.37.23.59.36 1.15.36.56 0 .78-.13 1.15-.36.46-.27 1.08-.64 2.19-.64 1.11 0 1.73.37 2.18.64.37.22.6.36 1.15.36s.78-.13 1.15-.36c.45-.27 1.07-.64 2.18-.64s1.73.37 2.18.64c.37.23.59.36 1.15.36v2zm0-4.5c-1.11 0-1.73-.37-2.18-.64-.37-.22-.6-.36-1.15-.36-.56 0-.78.13-1.15.36-.45.27-1.07.64-2.18.64s-1.73-.37-2.18-.64c-.37-.22-.6-.36-1.15-.36-.56 0-.78.13-1.15.36-.45.27-1.07.64-2.18.64s-1.73-.37-2.18-.64c-.37-.22-.6-.36-1.15-.36s-.78.13-1.15.36c-.47.27-1.09.64-2.2.64v-2c.56 0 .78-.13 1.15-.36.45-.27 1.07-.64 2.18-.64s1.73.37 2.18.64c.37.22.6.36 1.15.36.56 0 .78-.13 1.15-.36.45-.27 1.07-.64 2.18-.64s1.73.37 2.18.64c.37.22.6.36 1.15.36s.78-.13 1.15-.36c.45-.27 1.07-.64 2.18-.64s1.73.37 2.18.64c.37.22.6.36 1.15.36v2zM8.67 12c.56 0 .78-.13 1.15-.36.46-.27 1.08-.64 2.19-.64 1.11 0 1.73.37 2.18.64.37.22.6.36 1.15.36s.78-.13 1.15-.36c.12-.07.26-.15.41-.23L10.48 5C8.93 3.45 7.5 2.99 5 3v2.5c1.82-.01 2.89.39 4 1.5l1 1-3.25 3.25c.31.12.56.27.77.39.37.23.59.36 1.15.36z"/><circle cx="16.5" cy="5.5" r="2.5"/><path d="M0 0h24v24H0z" fill="none"/></symbol><symbol id="ic_priority_high" viewBox="0 0 24 24"><circle cx="12" cy="19" r="2"/><path d="M10 3h4v12h-4z"/><path d="M0 0h24v24H0z" fill="none"/></symbol><symbol id="ic_sentiment_very_satisfied" viewBox="0 0 24 24"><path d="M11.99 2C6.47 2 2 6.47 2 12s4.47 10 9.99 10S22 17.53 22 12 17.52 2 11.99 2zM12 20c-4.42 0-8-3.58-8-8s3.58-8 8-8 8 3.58 8 8-3.58 8-8 8zm1-10.06L14.06 11l1.06-1.06L16.18 11l1.06-1.06-2.12-2.12zm-4.12 0L9.94 11 11 9.94 8.88 7.82 6.76 9.94 7.82 11zM12 17.5c2.33 0 4.31-1.46 5.11-3.5H6.89c.8 2.04 2.78 3.5 5.11 3.5z"/><path d="M0 0h24v24H0z" fill="none"/></symbol></svg>