<?xml version="1.0" standalone="no"?><!-- Generator: Adobe Fireworks CS6, Export SVG Extension by Aaron Beall (http://fireworks.abeall.com) . Version: 0.6.1  --><!DOCTYPE svg PUBLIC "-//W3C//DTD SVG 1.1//EN" "http://www.w3.org/Graphics/SVG/1.1/DTD/svg11.dtd"><svg id="Untitled-Page%201" viewBox="0 0 92 122" style="background-color:#ffffff00" version="1.1"	xmlns="http://www.w3.org/2000/svg" xmlns:xlink="http://www.w3.org/1999/xlink" xml:space="preserve"	x="0px" y="0px" width="92px" height="122px">	<g id="Layer%201">		<path d="M 2 10.1328 L 2 91.0371 C 2.8203 99.6182 1.5659 116.75 26.3169 120.2529 L 86.0029 121 C 91.0459 116.2559 91.1309 111.5117 91.1611 106.7676 C 90.6797 100.3154 89.9434 94.0742 85.2656 91.0352 L 36.6328 90.2881 C 28.7358 88.6963 25.7964 84.8633 25.5796 79.8008 L 25.5796 59.5742 L 86.0986 60.1904 C 89.666 55.4492 92.5898 51.8145 91.8984 45.3408 C 91.5254 35.4883 88.9023 32.501 86.0029 30.3579 L 27.0537 29.6113 L 26.3169 10.1338 C 24.2979 6.5713 23.5127 2.2559 17.4741 1.1445 C 9.8779 0.1753 5.3403 4.1812 2 10.1338 L 2 10.1318 L 2 10.1328 Z" fill="#000000"/>	</g></svg>