<?xml version="1.0" encoding="utf-8"?>
<!-- Generator: Adobe Illustrator 16.0.4, SVG Export Plug-In . SVG Version: 6.00 Build 0)  -->
<!DOCTYPE svg PUBLIC "-//W3C//DTD SVG 1.1//EN" "http://www.w3.org/Graphics/SVG/1.1/DTD/svg11.dtd">
<svg version="1.1" id="Layer_1" xmlns="http://www.w3.org/2000/svg" xmlns:xlink="http://www.w3.org/1999/xlink" x="0px" y="0px"
	 width="269.292px" height="272.129px" viewBox="0 0 269.292 272.129" enable-background="new 0 0 269.292 272.129"
	 xml:space="preserve">
<g>
	<g>
		<rect fill="#A4C400" width="269.292" height="272.129"/>
	</g>
	<g>
		<g>
			<path fill="#FFFFFF" d="M157.249,101.139c1.033,0.617,2.168,0.926,3.406,0.926c2.129,0,3.92-0.822,5.371-2.469
				c1.451-1.645,2.176-3.57,2.176-5.776c0-1.975-0.707-3.708-2.119-5.198c-0.445-0.47-0.932-0.866-1.457-1.189
				c-0.072-0.044-0.146-0.085-0.221-0.127c-0.027-0.016-0.053-0.031-0.078-0.046c-1.072-0.589-2.303-0.884-3.691-0.884
				c-1.975,0-3.688,0.793-5.139,2.381c-1.451,1.587-2.176,3.445-2.176,5.574c0,2.013,0.725,3.804,2.176,5.371
				C156.044,100.292,156.628,100.771,157.249,101.139z"/>
			<path fill="#FFFFFF" d="M175.845,170.521c-3.121-0.002-6.732-0.879-7.91-4.037c-0.264-0.66-0.4-1.387-0.4-2.348v-47.426
				l-0.824-0.809c-3.227,0.799-7.6,1.317-13.119,1.554c-2.307,0.099-4.717,0.127-7.197,0.108v3.938c5.117,0,9.861,0.59,10.34,5.865
				c0,0,0,0.301,0,0.521v36.248c0,5.102-4.531,6.385-8.322,6.385s-8.322-1.283-8.322-6.385h-0.002v-29.79
				c0-5.69-1.324-10.248-3.977-13.674c-2.65-3.427-7.549-5.14-13.045-5.14c-6.781,0-13.706,1.403-19.871,6.416
				c-1.477,1.2-2.555,2.41-3.485,3.34H99.42v-8.072l-0.812-0.812l-18.312,1.278v3.83c3.636,0,7.938,1.188,8.289,5.782
				c0.021,0.162,0.035,0.35,0.035,0.604l0.002,32.128c-0.424,0.764-0.987,1.627-1.809,2.486c-4.05,4.238-13.198,7.777-18.575,6.971
				c-2.713-0.412-4.819-1.047-6.679-3.137c-1.856-2.092-2.786-5.207-2.786-9.35V117.22l-0.871-0.813l-18.369,1.274v3.832h0.001
				c3.592,0,7.842,1.156,8.279,5.618c0.028,0.204,0.044,0.446,0.044,0.769v28.536c0,6.307,1.322,11.111,3.97,14.418
				c2.647,3.305,6.783,4.992,12.128,5.133c11.584,0.311,16.977-3.047,21.325-6.359c1.411-1.074,2.204-2.137,3.132-3.105h0.21
				c0,0-0.116,7.836,8.595,7.836c2.864,0,6.697,0,6.697,0h3.831v-3.834c-0.005-0.002-0.008-0.002-0.014-0.002
				c-3.359-0.002-7.287-1.02-8.138-4.801c-0.109-0.473-0.173-0.99-0.173-1.584v-31.438c0,0,0.463-1.519,2.939-3.882
				c4.674-4.131,10.055-6.374,15.343-6.374c3.949,0,6.666,1.104,8.587,3.31c1.92,2.206,2.881,5.343,2.881,9.405v28.969
				c0,0.004,0,0.006,0,0.01c0,5.102-4.527,6.385-8.318,6.385c-0.002,0-0.004,0.002-0.006,0.002v3.834h55.012v-3.834
				C175.853,170.521,175.849,170.521,175.845,170.521z"/>
		</g>
		<path fill="#FFFFFF" d="M225.749,159.639c-1.98,3.121-4.107,5.504-6.383,7.146c-2.531,1.832-5.672,2.744-9.42,2.744
			c-2.59,0-4.932-0.566-7.023-1.703c-2.084-1.139-3.922-2.84-5.512-5.107c-3.189-4.549-4.783-10.426-4.783-17.625
			c0-4.568,0.441-8.499,1.332-11.787c0.887-3.293,2.016-5.93,3.475-7.841c3.307-4.332,7.221-5.572,11.195-5.575
			c3.336-0.003,5.457,0.851,6.879,2.002c-0.465,0.721-0.76,1.563-0.877,2.537c-0.203,1.724,0.193,3.285,1.197,4.683
			c0.945,1.32,2.266,2.153,3.955,2.5c0.637,0.129,1.244,0.169,1.826,0.118c0.969-0.081,1.857-0.413,2.67-0.996
			c1.398-1.001,2.186-2.384,2.363-4.146s-0.252-3.367-1.291-4.815c-0.092-0.127-0.316-0.405-0.318-0.407
			c-0.59-0.667-1.234-1.275-1.988-1.852c-0.443-0.34-0.906-0.657-1.385-0.954c-3.311-2.062-7.463-3.135-12.838-3.093
			c-4.875,0.037-8.82,0.842-12.266,2.525c-3.443,1.685-6.309,3.899-8.594,6.649c-2.4,2.863-4.229,6.048-5.486,9.552
			c-1.26,3.504-1.887,7.27-1.887,11.297c0,9.252,2.34,16.627,7.025,22.125c1.758,2.061,3.768,3.736,6.031,5.023
			c3.773,2.154,8.254,3.232,13.439,3.232c4.451,0,8.77-1.338,12.949-4.008c4.143-2.645,7.486-6.221,10.033-10.729
			c0.023-0.043,0.623-1.088,0.648-1.131L225.749,159.639z"/>
	</g>
</g>
</svg>
